<svg width="200" height="150" viewBox="0 0 200 150" fill="none" xmlns="http://www.w3.org/2000/svg">
  <rect x="30" y="20" width="140" height="90" rx="10" fill="#F0F4FF" />
  <rect x="40" y="40" width="80" height="10" rx="5" fill="#E2E8F0" />
  <rect x="40" y="60" width="120" height="10" rx="5" fill="#E2E8F0" />
  <rect x="40" y="80" width="100" height="10" rx="5" fill="#E2E8F0" />
  
  <circle cx="150" cy="40" r="15" fill="#FDD1DC" />
  <circle cx="50" cy="120" r="15" fill="#FDD1DC" />
  
  <g transform="translate(110, 50)">
    <rect x="0" y="0" width="30" height="40" rx="5" fill="#F56565" />
    <rect x="5" y="5" width="20" height="5" rx="2" fill="white" />
    <rect x="5" y="15" width="20" height="5" rx="2" fill="white" />
    <rect x="5" y="25" width="20" height="5" rx="2" fill="white" />
  </g>
  
  <g transform="translate(70, 70)">
    <circle cx="15" cy="15" r="15" fill="#4299E1" />
    <path d="M10 15L15 20L22 12" stroke="white" stroke-width="2" stroke-linecap="round" stroke-linejoin="round" />
  </g>
  
  <g transform="translate(30, 60)">
    <path d="M10,0 L20,0 L30,10 L30,30 L0,30 L0,10 Z" fill="#9B59B6" />
    <rect x="5" y="10" width="20" height="5" rx="2" fill="white" />
    <rect x="5" y="20" width="15" height="5" rx="2" fill="white" />
  </g>
</svg> 